<svg width="20" height="21" viewBox="0 0 20 21" fill="none" xmlns="http://www.w3.org/2000/svg">
<path d="M2.5 4.5H4.5V7.5H14.5V4.5H16.5V10.5H18.5V4.5C18.5 3.4 17.6 2.5 16.5 2.5H12.32C11.9 1.34 10.8 0.5 9.5 0.5C8.2 0.5 7.1 1.34 6.68 2.5H2.5C1.4 2.5 0.5 3.4 0.5 4.5V18.5C0.5 19.6 1.4 20.5 2.5 20.5H7.5V18.5H2.5V4.5ZM9.5 2.5C10.05 2.5 10.5 2.95 10.5 3.5C10.5 4.05 10.05 4.5 9.5 4.5C8.95 4.5 8.5 4.05 8.5 3.5C8.5 2.95 8.95 2.5 9.5 2.5Z" fill="#6960D7"/>
<path d="M15.51 12.5L14.09 13.91L15.67 15.49H9.5V17.49H15.67L14.09 19.08L15.51 20.49L19.5 16.49L15.51 12.5Z" fill="#6960D7"/>
</svg>
