<svg width="30" height="24" viewBox="0 0 30 24" fill="none" xmlns="http://www.w3.org/2000/svg">
<path d="M9.63756 5.57861L6.47982 3.02059C6.44271 3.20151 6.41403 3.38745 6.39716 3.57675C6.36342 3.91849 6.36511 4.26358 6.4056 4.5936L9.63756 5.57861ZM19.5241 14.1925C19.1479 14.9028 18.6486 15.4757 18.0599 15.9565C16.8589 16.9415 15.2733 17.563 13.7416 18.1627C9.87035 19.6754 8.25268 20.7911 5.68869 23.989L4.46237 23.4748C5.46603 21.8465 6.3921 20.183 7.41095 18.5581C9.28502 15.5745 11.5352 12.2225 13.9963 9.68452C14.4754 9.19034 14.9781 8.71291 15.5077 8.25893C17.3464 6.68257 19.5966 5.56521 21.9599 4.92696C20.7369 4.34064 19.8007 2.98876 18.8493 2.81956C15.8653 2.28517 15.555 7.83343 14.2814 9.45335C9.32381 15.7554 -0.21353 10.569 0.54217 2.80448L4.48936 4.00895C4.49104 3.80625 4.50116 3.60355 4.51972 3.40086C4.60406 2.53478 4.85034 1.68545 5.20963 1.01537L5.74773 0.0102539L6.635 0.728914L13.2963 6.12808C14.0334 4.30379 14.6542 2.31198 16.0205 1.31188C16.9162 0.65688 17.9958 0.31179 19.2424 0.534591C19.9171 0.655205 20.4704 0.916536 20.9444 1.28676C23.952 4.11281 24.0701 4.55004 28.9417 4.51654L29.5 6.10965C26.6577 6.21854 23.3178 6.45307 20.7656 7.62068C20.494 7.74465 20.2292 7.87531 19.9711 8.01268C20.413 9.94251 20.4586 12.4235 19.5241 14.1925ZM12.8189 8.34269C12.684 8.44823 12.544 8.54539 12.4006 8.63418L10.0542 7.91719L3.30857 5.86172C3.58184 7.79825 5.64146 9.2205 7.54758 9.75488C10.0171 10.4451 11.3531 9.60579 12.2724 8.20197L12.8189 8.34269ZM17.8642 9.35786C17.4054 9.70295 16.9668 10.0698 16.5468 10.4518C16.0492 10.9057 15.5752 11.3832 15.1248 11.8774C14.6711 12.3749 14.2409 12.8875 13.8293 13.4068C13.0433 14.4019 12.3146 15.4439 11.6128 16.4976L11.623 16.511C11.9671 16.3686 12.3297 16.2262 12.6992 16.0821C13.8378 15.6382 15.0287 15.1708 15.9362 14.5527C16.7543 13.9931 17.2384 13.4336 17.5218 12.7887C17.9638 11.7768 18.0026 10.4501 17.8642 9.35786Z" fill="#6960D7"/>
</svg>
