<svg width="32" height="32" viewBox="0 0 32 32" fill="none" xmlns="http://www.w3.org/2000/svg">
<rect y="0.000244141" width="32" height="32" rx="8" fill="#FFAE63"/>
<g clip-path="url(#clip0_2_1549)">
<path d="M15.9959 9.33423C12.3159 9.33423 9.33594 12.3209 9.33594 16.0009C9.33594 19.6809 12.3159 22.6676 15.9959 22.6676C19.6826 22.6676 22.6693 19.6809 22.6693 16.0009C22.6693 12.3209 19.6826 9.33423 15.9959 9.33423ZM13.6693 13.3342C14.2226 13.3342 14.6693 13.7809 14.6693 14.3342C14.6693 14.8876 14.2226 15.3342 13.6693 15.3342C13.1159 15.3342 12.6693 14.8876 12.6693 14.3342C12.6693 13.7809 13.1159 13.3342 13.6693 13.3342ZM19.1426 17.8142C18.5359 19.1142 17.3626 20.0009 16.0026 20.0009C14.6426 20.0009 13.4693 19.1142 12.8626 17.8142C12.7559 17.5942 12.9159 17.3342 13.1626 17.3342H18.8426C19.0893 17.3342 19.2493 17.5942 19.1426 17.8142ZM18.3359 15.3342C17.7826 15.3342 17.3359 14.8876 17.3359 14.3342C17.3359 13.7809 17.7826 13.3342 18.3359 13.3342C18.8893 13.3342 19.3359 13.7809 19.3359 14.3342C19.3359 14.8876 18.8893 15.3342 18.3359 15.3342Z" fill="white"/>
</g>
<defs>
<clipPath id="clip0_2_1549">
<rect width="16" height="16" fill="white" transform="translate(8 8.00024)"/>
</clipPath>
</defs>
</svg>
