<svg width="32" height="32" viewBox="0 0 32 32" fill="none" xmlns="http://www.w3.org/2000/svg">
<rect y="0.000244141" width="32" height="32" rx="8" fill="#6960D7"/>
<path d="M15 22C15 22 14 22 14 21C14 20 15 17 19 17C23 17 24 20 24 21C24 22 23 22 23 22H15ZM19 16C19.7956 16 20.5587 15.6839 21.1213 15.1213C21.6839 14.5587 22 13.7956 22 13C22 12.2044 21.6839 11.4413 21.1213 10.8787C20.5587 10.3161 19.7956 10 19 10C18.2044 10 17.4413 10.3161 16.8787 10.8787C16.3161 11.4413 16 12.2044 16 13C16 13.7956 16.3161 14.5587 16.8787 15.1213C17.4413 15.6839 18.2044 16 19 16Z" fill="white"/>
<path fill-rule="evenodd" clip-rule="evenodd" d="M13.216 22.0004C13.0678 21.6882 12.9938 21.346 13 21.0004C13 19.6454 13.68 18.2504 14.936 17.2804C14.3091 17.0873 13.6559 16.9928 13 17.0004C9 17.0004 8 20.0004 8 21.0004C8 22.0004 9 22.0004 9 22.0004H13.216Z" fill="white"/>
<path d="M12.5 16C13.163 16 13.7989 15.7366 14.2678 15.2678C14.7366 14.7989 15 14.163 15 13.5C15 12.837 14.7366 12.2011 14.2678 11.7322C13.7989 11.2634 13.163 11 12.5 11C11.837 11 11.2011 11.2634 10.7322 11.7322C10.2634 12.2011 10 12.837 10 13.5C10 14.163 10.2634 14.7989 10.7322 15.2678C11.2011 15.7366 11.837 16 12.5 16Z" fill="white"/>
</svg>
