<svg width="20" height="20" viewBox="0 0 20 20" fill="none" xmlns="http://www.w3.org/2000/svg">
<path d="M9 16.0001C9 16.0001 8 16.0001 8 15.0001C8 14.0001 9 11.0001 13 11.0001C17 11.0001 18 14.0001 18 15.0001C18 16.0001 17 16.0001 17 16.0001H9ZM13 10.0001C13.7956 10.0001 14.5587 9.68399 15.1213 9.12138C15.6839 8.55877 16 7.79571 16 7.00006C16 6.20441 15.6839 5.44135 15.1213 4.87874C14.5587 4.31613 13.7956 4.00006 13 4.00006C12.2044 4.00006 11.4413 4.31613 10.8787 4.87874C10.3161 5.44135 10 6.20441 10 7.00006C10 7.79571 10.3161 8.55877 10.8787 9.12138C11.4413 9.68399 12.2044 10.0001 13 10.0001Z" fill="#272543"/>
<path fill-rule="evenodd" clip-rule="evenodd" d="M7.216 16.0005C7.06776 15.6883 6.99382 15.346 7 15.0005C7 13.6455 7.68 12.2505 8.936 11.2805C8.30909 11.0873 7.65595 10.9929 7 11.0005C3 11.0005 2 14.0005 2 15.0005C2 16.0005 3 16.0005 3 16.0005H7.216Z" fill="#272543"/>
<path d="M6.5 10.0001C7.16304 10.0001 7.79893 9.73667 8.26777 9.26783C8.73661 8.79899 9 8.1631 9 7.50006C9 6.83702 8.73661 6.20114 8.26777 5.73229C7.79893 5.26345 7.16304 5.00006 6.5 5.00006C5.83696 5.00006 5.20107 5.26345 4.73223 5.73229C4.26339 6.20114 4 6.83702 4 7.50006C4 8.1631 4.26339 8.79899 4.73223 9.26783C5.20107 9.73667 5.83696 10.0001 6.5 10.0001Z" fill="#272543"/>
</svg>
