<svg width="20" height="20" viewBox="0 0 20 20" fill="none" xmlns="http://www.w3.org/2000/svg">
<path d="M9 16.0002C9 16.0002 8 16.0002 8 15.0002C8 14.0002 9 11.0002 13 11.0002C17 11.0002 18 14.0002 18 15.0002C18 16.0002 17 16.0002 17 16.0002H9ZM13 10.0002C13.7956 10.0002 14.5587 9.68417 15.1213 9.12156C15.6839 8.55896 16 7.79589 16 7.00024C16 6.20459 15.6839 5.44153 15.1213 4.87892C14.5587 4.31631 13.7956 4.00024 13 4.00024C12.2044 4.00024 11.4413 4.31631 10.8787 4.87892C10.3161 5.44153 10 6.20459 10 7.00024C10 7.79589 10.3161 8.55896 10.8787 9.12156C11.4413 9.68417 12.2044 10.0002 13 10.0002Z" fill="#A1A0AF"/>
<path fill-rule="evenodd" clip-rule="evenodd" d="M7.216 16.0007C7.06776 15.6885 6.99382 15.3462 7 15.0007C7 13.6457 7.68 12.2507 8.936 11.2807C8.30909 11.0875 7.65595 10.993 7 11.0007C3 11.0007 2 14.0007 2 15.0007C2 16.0007 3 16.0007 3 16.0007H7.216Z" fill="#A1A0AF"/>
<path d="M6.5 10.0002C7.16304 10.0002 7.79893 9.73685 8.26777 9.26801C8.73661 8.79917 9 8.16329 9 7.50024C9 6.8372 8.73661 6.20132 8.26777 5.73248C7.79893 5.26364 7.16304 5.00024 6.5 5.00024C5.83696 5.00024 5.20107 5.26364 4.73223 5.73248C4.26339 6.20132 4 6.8372 4 7.50024C4 8.16329 4.26339 8.79917 4.73223 9.26801C5.20107 9.73685 5.83696 10.0002 6.5 10.0002Z" fill="#A1A0AF"/>
</svg>
