<svg width="32" height="32" viewBox="0 0 32 32" fill="none" xmlns="http://www.w3.org/2000/svg">
<rect y="0.000244141" width="32" height="32" rx="8" fill="#FF5492"/>
<g clip-path="url(#clip0_2_1537)">
<path d="M22.0738 12.7188L22.0737 12.7184C21.9565 12.2518 21.4956 11.9813 21.0373 12.0826L21.0368 12.0827C19.284 12.4782 17.3301 12.6502 15.5 12.6502C13.67 12.6502 11.7161 12.4782 9.96318 12.0827L9.96275 12.0826C9.50444 11.9813 9.04356 12.2518 8.92634 12.7184L8.92624 12.7188C8.81003 13.1898 9.09128 13.6739 9.55518 13.785L9.55638 13.7853C10.7234 14.0497 11.9815 14.2351 13.1794 14.3419V23.2502C13.1794 23.7167 13.5561 24.1002 14.0196 24.1002C14.4832 24.1002 14.8598 23.7167 14.8598 23.2502V19.6002H16.1402V23.2502C16.1402 23.7167 16.5168 24.1002 16.9804 24.1002C17.444 24.1002 17.8206 23.7167 17.8206 23.2502V14.3419C19.0185 14.2351 20.2764 14.0497 21.4364 13.7852L21.437 13.7851C21.9082 13.6743 22.1901 13.1903 22.0738 12.7188ZM15.5 12.1002C16.3707 12.1002 17.0804 11.3792 17.0804 10.5002C17.0804 9.62126 16.3707 8.90024 15.5 8.90024C14.6293 8.90024 13.9196 9.62126 13.9196 10.5002C13.9196 11.3792 14.6293 12.1002 15.5 12.1002Z" fill="white" stroke="white" stroke-width="0.2"/>
</g>
<defs>
<clipPath id="clip0_2_1537">
<rect width="16" height="16" fill="white" transform="translate(8 8.00024)"/>
</clipPath>
</defs>
</svg>
